<?xml version="1.0" encoding="UTF-8"?>
<svg width="64" height="64" viewBox="0 0 24 24" fill="none" xmlns="http://www.w3.org/2000/svg">
    <path d="M12 3V3C15.3137 3 18 5.68629 18 9V14.7639C18 15.5215 18.428 16.214 19.1056 16.5528L19.6159 16.8089C20.5843 17.2822 21.1459 18.3475 20.9917 19.4193L20.9483 19.7447C20.8234 20.6341 20.0844 21.3125 19.1872 21.3125H4.81282C3.91564 21.3125 3.17659 20.6341 3.05173 19.7447L3.00834 19.4193C2.85414 18.3475 3.41573 17.2822 4.38407 16.8089L4.89443 16.5528C5.57196 16.214 6 15.5215 6 14.7639V9C6 5.68629 8.68629 3 12 3Z" stroke="#4A90E2" stroke-width="2"/>
    <path d="M9 21C9 22.6569 10.3431 24 12 24C13.6569 24 15 22.6569 15 21" stroke="#4A90E2" stroke-width="2"/>
    <path d="M12 2V0" stroke="#4A90E2" stroke-width="2" stroke-linecap="round"/>
</svg> 